<svg version="1.1" id="Layer_1" xmlns="http://www.w3.org/2000/svg" xmlns:xlink="http://www.w3.org/1999/xlink" x="0px" y="0px"
	 width="100%" viewBox="0 0 1920 1080" enable-background="new 0 0 1920 1080" xml:space="preserve">
<path fill="#212121" opacity="1.000000" stroke="none" 
	d="
M1.000001,273.000000 
	C1.000000,182.344238 1.000000,91.688492 1.000000,1.016366 
	C640.912048,1.016366 1280.824097,1.016366 1920.868164,1.016366 
	C1920.868164,360.999969 1920.868164,721.000000 1920.868164,1081.000000 
	C1867.566528,1081.000000 1814.239136,1081.000000 1760.264404,1080.712280 
	C1758.732910,1079.961182 1757.867554,1079.457764 1756.962524,1079.040161 
	C1711.153320,1057.896606 1665.336914,1036.768677 1619.529297,1015.621399 
	C1547.715088,982.468018 1475.916016,949.281494 1404.093140,916.146973 
	C1319.114990,876.943420 1234.116577,837.783569 1149.130127,798.597961 
	C1099.680542,775.797791 1050.243042,752.971069 1000.758789,730.246521 
	C999.420715,729.632080 997.605713,730.056030 996.000854,730.119507 
	C995.950928,730.487427 995.932678,730.733704 995.978027,731.304749 
	C996.062988,732.059204 996.103882,732.491028 995.931396,733.245483 
	C994.444031,739.694641 993.379700,745.876953 991.773315,751.915039 
	C991.264465,753.827698 989.308655,755.355408 987.590088,757.037231 
	C969.333679,754.769531 951.514771,752.418030 933.667236,750.307861 
	C915.991028,748.217834 898.269531,746.508911 880.597473,744.386108 
	C852.663818,741.030640 824.768127,737.357788 796.831543,734.028076 
	C772.377808,731.113525 747.878784,728.579773 723.420654,725.700867 
	C706.070129,723.658447 688.764771,721.234863 671.420837,719.133667 
	C633.909729,714.589050 596.386536,710.143799 558.868652,705.654785 
	C537.563721,703.105652 516.263000,700.520630 494.953979,698.005493 
	C468.174347,694.844604 441.384705,691.768066 414.605804,688.600891 
	C384.718658,685.066040 354.823578,681.591675 324.959869,677.867065 
	C295.235199,674.159973 265.537170,670.235229 235.845840,666.268555 
	C228.721756,665.316833 228.076035,664.141296 230.537155,657.116821 
	C237.398956,637.531982 244.369247,617.984619 251.404617,598.461365 
	C255.632339,586.729309 260.250763,575.135498 264.340332,563.356873 
	C267.551880,554.107178 269.957397,544.577026 273.190033,535.335449 
	C279.121643,518.377930 285.510284,501.580658 291.501099,484.643280 
	C297.540375,467.568848 303.370117,450.419708 309.180878,433.265778 
	C310.079315,430.613556 310.384369,427.760376 311.050110,424.657623 
	C312.953796,419.183258 308.536438,418.394501 305.672974,417.029816 
	C281.088318,405.313202 256.428833,393.753571 231.788956,382.152802 
	C209.369217,371.597290 186.905518,361.134033 164.537140,350.470825 
	C146.377609,341.814026 128.361816,332.856171 110.226891,324.147156 
	C80.108810,309.683502 49.969151,295.264221 19.783463,280.942413 
	C13.647465,278.031158 7.267502,275.634094 1.000001,273.000000 
z"/>
<path fill="#151515" opacity="1.000000" stroke="none" 
	d="
M310.963806,425.000122 
	C310.384369,427.760376 310.079315,430.613556 309.180878,433.265778 
	C303.370117,450.419708 297.540375,467.568848 291.501099,484.643280 
	C285.510284,501.580658 279.121643,518.377930 273.190033,535.335449 
	C269.957397,544.577026 267.551880,554.107178 264.340332,563.356873 
	C260.250763,575.135498 255.632339,586.729309 251.404617,598.461365 
	C244.369247,617.984619 237.398956,637.531982 230.537155,657.116821 
	C228.076035,664.141296 228.721756,665.316833 235.845840,666.268555 
	C265.537170,670.235229 295.235199,674.159973 324.959869,677.867065 
	C354.823578,681.591675 384.718658,685.066040 414.605804,688.600891 
	C441.384705,691.768066 468.174347,694.844604 494.953979,698.005493 
	C516.263000,700.520630 537.563721,703.105652 558.868652,705.654785 
	C596.386536,710.143799 633.909729,714.589050 671.420837,719.133667 
	C688.764771,721.234863 706.070129,723.658447 723.420654,725.700867 
	C747.878784,728.579773 772.377808,731.113525 796.831543,734.028076 
	C824.768127,737.357788 852.663818,741.030640 880.597473,744.386108 
	C898.269531,746.508911 915.991028,748.217834 933.667236,750.307861 
	C951.514771,752.418030 969.333679,754.769531 987.483398,757.370605 
	C985.477051,759.410034 983.103149,761.030579 980.837097,762.790161 
	C974.034241,768.072632 967.391235,773.568542 960.469727,778.688965 
	C948.924805,787.229736 937.197449,795.523621 925.574890,803.959900 
	C916.901672,810.255432 908.186035,816.497498 899.643005,822.966370 
	C885.082642,833.991638 870.831787,845.434204 856.102356,856.225708 
	C839.671265,868.264038 822.830688,879.742493 806.217468,891.533813 
	C802.706604,894.025696 799.477478,896.911926 795.996277,899.448608 
	C790.423767,903.509216 784.630127,907.273193 779.143555,911.443481 
	C769.255432,918.959290 759.638855,926.834595 749.698669,934.279114 
	C738.817871,942.428101 727.750305,950.331299 716.669861,958.208862 
	C705.582031,966.091919 694.237366,973.619385 683.261353,981.652588 
	C670.847046,990.738586 658.806335,1000.333618 646.442017,1009.489624 
	C631.502808,1020.552490 616.338928,1031.311646 601.375061,1042.341797 
	C587.076660,1052.881470 572.856079,1063.529419 558.740234,1074.311646 
	C556.456360,1076.056030 554.895203,1078.746704 553.000000,1081.000000 
	C369.098572,1081.000000 185.197128,1081.000000 1.000000,1081.000000 
	C1.000000,992.979309 1.000000,904.958313 1.322877,816.358521 
	C2.865055,814.692566 4.280709,813.759766 5.274370,812.495300 
	C21.400915,791.973450 37.429062,771.374207 53.573498,750.866516 
	C66.206703,734.819031 79.056839,718.941895 91.653320,702.865906 
	C110.026321,679.417664 128.185791,655.802063 146.587280,632.376343 
	C153.567871,623.489868 161.161087,615.083862 168.120270,606.181519 
	C174.763702,597.682983 180.722824,588.648743 187.383469,580.164612 
	C197.023407,567.885498 207.157883,555.995178 216.834503,543.744080 
	C227.040527,530.822693 236.909164,517.635376 247.012863,504.632385 
	C256.499268,492.423828 266.101227,480.305084 275.650208,468.145142 
	C282.319824,459.651794 288.876068,451.066254 295.690247,442.690552 
	C300.604675,436.649963 305.860352,430.886932 310.963806,425.000122 
z"/>
<path fill="#959595" opacity="1.000000" stroke="none" 
	d="
M996.144775,732.922852 
	C996.103882,732.491028 996.062988,732.059204 996.057861,731.062988 
	C996.066772,730.330933 996.039917,730.163330 996.013123,729.995728 
	C997.605713,730.056030 999.420715,729.632080 1000.758789,730.246521 
	C1050.243042,752.971069 1099.680542,775.797791 1149.130127,798.597961 
	C1234.116577,837.783569 1319.114990,876.943420 1404.093140,916.146973 
	C1475.916016,949.281494 1547.715088,982.468018 1619.529297,1015.621399 
	C1665.336914,1036.768677 1711.153320,1057.896606 1756.962524,1079.040161 
	C1757.867554,1079.457764 1758.732910,1079.961182 1759.808350,1080.712280 
	C1530.312378,1081.000000 1300.624878,1081.000000 1070.663330,1080.607422 
	C1070.135620,1078.740601 1069.930908,1077.256104 1069.620972,1075.793701 
	C1058.885010,1025.136230 1048.131470,974.482666 1037.396240,923.825073 
	C1025.158691,866.078613 1012.959167,808.324097 1000.672852,750.588013 
	C999.408691,744.647461 997.665588,738.808777 996.144775,732.922852 
z"/>
<path fill="#101010" opacity="1.000000" stroke="none" 
	d="
M995.931396,733.245483 
	C997.665588,738.808777 999.408691,744.647461 1000.672852,750.588013 
	C1012.959167,808.324097 1025.158691,866.078613 1037.396240,923.825073 
	C1048.131470,974.482666 1058.885010,1025.136230 1069.620972,1075.793701 
	C1069.930908,1077.256104 1070.135620,1078.740601 1070.194702,1080.607422 
	C897.979126,1081.000000 725.958191,1081.000000 553.468628,1081.000000 
	C554.895203,1078.746704 556.456360,1076.056030 558.740234,1074.311646 
	C572.856079,1063.529419 587.076660,1052.881470 601.375061,1042.341797 
	C616.338928,1031.311646 631.502808,1020.552490 646.442017,1009.489624 
	C658.806335,1000.333618 670.847046,990.738586 683.261353,981.652588 
	C694.237366,973.619385 705.582031,966.091919 716.669861,958.208862 
	C727.750305,950.331299 738.817871,942.428101 749.698669,934.279114 
	C759.638855,926.834595 769.255432,918.959290 779.143555,911.443481 
	C784.630127,907.273193 790.423767,903.509216 795.996277,899.448608 
	C799.477478,896.911926 802.706604,894.025696 806.217468,891.533813 
	C822.830688,879.742493 839.671265,868.264038 856.102356,856.225708 
	C870.831787,845.434204 885.082642,833.991638 899.643005,822.966370 
	C908.186035,816.497498 916.901672,810.255432 925.574890,803.959900 
	C937.197449,795.523621 948.924805,787.229736 960.469727,778.688965 
	C967.391235,773.568542 974.034241,768.072632 980.837097,762.790161 
	C983.103149,761.030579 985.477051,759.410034 987.908325,757.392578 
	C989.308655,755.355408 991.264465,753.827698 991.773315,751.915039 
	C993.379700,745.876953 994.444031,739.694641 995.931396,733.245483 
z"/>
<path fill="#101010" opacity="1.000000" stroke="none" 
	d="
M311.050110,424.657623 
	C305.860352,430.886932 300.604675,436.649963 295.690247,442.690552 
	C288.876068,451.066254 282.319824,459.651794 275.650208,468.145142 
	C266.101227,480.305084 256.499268,492.423828 247.012863,504.632385 
	C236.909164,517.635376 227.040527,530.822693 216.834503,543.744080 
	C207.157883,555.995178 197.023407,567.885498 187.383469,580.164612 
	C180.722824,588.648743 174.763702,597.682983 168.120270,606.181519 
	C161.161087,615.083862 153.567871,623.489868 146.587280,632.376343 
	C128.185791,655.802063 110.026321,679.417664 91.653320,702.865906 
	C79.056839,718.941895 66.206703,734.819031 53.573498,750.866516 
	C37.429062,771.374207 21.400915,791.973450 5.274370,812.495300 
	C4.280709,813.759766 2.865055,814.692566 1.322877,815.889893 
	C1.000000,635.312439 1.000000,454.624878 1.000001,273.468658 
	C7.267502,275.634094 13.647465,278.031158 19.783463,280.942413 
	C49.969151,295.264221 80.108810,309.683502 110.226891,324.147156 
	C128.361816,332.856171 146.377609,341.814026 164.537140,350.470825 
	C186.905518,361.134033 209.369217,371.597290 231.788956,382.152802 
	C256.428833,393.753571 281.088318,405.313202 305.672974,417.029816 
	C308.536438,418.394501 312.953796,419.183258 311.050110,424.657623 
z"/>
<path fill="#101010" opacity="1.000000" stroke="none" 
	d="
M996.000854,730.119507 
	C996.039917,730.163330 996.066772,730.330933 996.013733,730.740356 
	C995.932678,730.733704 995.950928,730.487427 996.000854,730.119507 
z"/>
</svg>